<?xml version="1.0" encoding="utf-8"?>
<!-- Generator: Adobe Illustrator 15.0.0, SVG Export Plug-In . SVG Version: 6.00 Build 0)  -->
<!DOCTYPE svg PUBLIC "-//W3C//DTD SVG 1.1//EN" "http://www.w3.org/Graphics/SVG/1.1/DTD/svg11.dtd">
<svg version="1.1" xmlns="http://www.w3.org/2000/svg" xmlns:xlink="http://www.w3.org/1999/xlink" x="0px" y="0px" width="481px"
	 height="476px" viewBox="0 0 481 476" enable-background="new 0 0 481 476" xml:space="preserve">
<g id="Layer_2">
	<rect fill="#5451A2" width="481" height="476"/>
</g>
<g id="Layer_1">
	<path fill="#FBB216" d="M254.2,57.732c-8.599,1.062-22.667,1.032-31.266-0.066l-20.799-2.658c-8.595-1.098-8.582-2.783,0.03-3.748
		l23.943-2.675c8.612-0.964,22.7-0.941,31.309,0.046l20.837,2.398c8.61,0.993,8.615,2.672,0.015,3.731L254.2,57.732z"/>
	<path fill="#FBB216" d="M321.524,65.955c-8.582,1.202-22.637,1.29-31.233,0.192l-27.501-3.506
		c-8.596-1.098-8.593-2.877,0.006-3.956l23.199-2.906c8.598-1.078,22.675-1.149,31.284-0.158l27.191,3.13
		c8.609,0.993,8.631,2.788,0.05,3.986L321.524,65.955z"/>
	<path fill="#FBB216" d="M397.544,75.332c-8.554,1.383-22.587,1.619-31.183,0.521l-35.591-4.543
		c-8.596-1.098-8.61-2.993-0.031-4.214l22.933-3.265c8.58-1.224,22.643-1.413,31.25-0.423l34.782,4.005
		c8.606,0.987,8.65,2.932,0.098,4.315L397.544,75.332z"/>
	<path fill="#FBB216" d="M187.063,66.015c-8.601,1.065-22.656,0.916-31.232-0.33l-20.394-2.958c-8.573-1.24-8.545-3.044,0.066-4.011
		l30.47-3.407c8.612-0.963,22.688-0.845,31.286,0.263l20.78,2.678c8.596,1.108,8.591,2.883-0.011,3.945L187.063,66.015z"/>
	<path fill="#FBB216" d="M258.08,75.521c-8.582,1.205-22.621,1.181-31.197-0.058l-28.76-4.153c-8.576-1.24-8.56-3.139,0.041-4.217
		l30.967-3.891c8.598-1.078,22.667-1.062,31.26,0.044l28.783,3.696c8.595,1.105,8.606,2.996,0.024,4.203L258.08,75.521z"/>
	<path fill="#FBB216" d="M330.811,86.122c-8.555,1.386-22.572,1.501-31.148,0.259l-36.13-5.232c-8.573-1.24-8.573-3.257,0.006-4.478
		l30.212-4.304c8.579-1.221,22.628-1.315,31.221-0.207l35.658,4.599c8.596,1.108,8.628,3.144,0.074,4.53L330.811,86.122z"/>
	<path fill="#FBB216" d="M109.486,75.87c-8.6,1.065-22.628,0.758-31.174-0.683l-20.394-3.438c-8.543-1.438-8.488-3.405,0.124-4.367
		l39.682-4.439c8.612-0.96,22.673-0.718,31.249,0.538l21.319,3.127c8.575,1.262,8.553,3.161-0.046,4.223L109.486,75.87z"/>
	<path fill="#FBB216" d="M174.983,86.471c-8.582,1.202-22.593,1.007-31.14-0.43l-26.873-4.519c-8.545-1.437-8.504-3.495,0.096-4.576
		l38.553-4.829c8.598-1.082,22.648-0.928,31.218,0.334l27.444,4.042c8.573,1.262,8.565,3.278-0.017,4.48L174.983,86.471z"/>
	<path fill="#FBB216" d="M251.281,98.987c-8.554,1.382-22.544,1.339-31.093-0.099l-36.097-6.074
		c-8.546-1.438-8.519-3.616,0.061-4.837l39.362-5.604c8.578-1.224,22.612-1.191,31.186,0.071l36.159,5.325
		c8.574,1.262,8.588,3.427,0.034,4.809L251.281,98.987z"/>
	<path fill="#FDD173" d="M308.594,173.831c0,8.664-6.862,17.542-15.246,19.729l-36.7,9.567c-8.384,2.184-15.246-3.117-15.246-11.781
		v-71.288c0-8.665,6.997-16.912,15.545-18.322l36.103-5.965c8.548-1.41,15.545,4.521,15.545,13.188V173.831z"/>
	<path fill="#FFFFFF" d="M376.046,155.543c0,8.664-6.862,17.539-15.249,19.717l-27.752,7.212
		c-8.387,2.184-15.249-3.125-15.249-11.789v-62.501c0-8.664,6.993-16.917,15.542-18.332l27.167-4.508
		c8.548-1.418,15.542,4.514,15.542,13.177V155.543z"/>
	<path fill="#FDD173" d="M435.047,140.204c0,8.667-6.863,17.539-15.25,19.717l-20.48,5.328c-8.386,2.179-15.248-3.127-15.248-11.791
		v-56.27c0-8.664,6.993-16.917,15.542-18.333l19.895-3.303c8.545-1.418,15.542,4.511,15.542,13.174V140.204z"/>
	<path fill="#FDD173" d="M308.594,278.258c0,8.667-6.661,18.182-14.804,21.147l-37.584,13.688
		c-8.143,2.963-14.804-1.701-14.804-10.365v-71.286c0-8.667,6.849-17.596,15.215-19.844l36.762-9.876
		c8.367-2.248,15.215,3.003,15.215,11.67V278.258z"/>
	<path fill="#FFFFFF" d="M376.046,309.181c0,8.667-6.661,18.178-14.807,21.136l-28.636,10.409
		c-8.143,2.957-14.807-1.712-14.807-10.376V211.664c0-8.667,6.845-17.602,15.212-19.854l27.825-7.496
		c8.368-2.255,15.213,2.993,15.213,11.658V309.181z"/>
	<path fill="#FDD173" d="M435.047,231.55c0,8.667-6.661,18.178-14.807,21.139l-21.365,7.761c-8.146,2.96-14.807-1.706-14.807-10.375
		V193.81c0-8.664,6.846-17.601,15.212-19.853l20.554-5.536c8.365-2.255,15.212,2.991,15.212,11.655V231.55z"/>
	<path fill="#FDD173" d="M308.594,385.892c0,8.665-6.415,18.774-14.256,22.467l-38.681,18.211
		c-7.841,3.693-14.256-0.378-14.256-9.045v-71.283c0-8.667,6.637-18.247,14.752-21.292l37.688-14.146
		c8.112-3.046,14.752,1.555,14.752,10.223V385.892z"/>
	<path fill="#FFFFFF" d="M376.046,353.434c0,8.667-6.417,18.771-14.258,22.458l-29.734,13.972
		c-7.841,3.688-14.258-0.387-14.258-9.054v-62.494c0-8.667,6.634-18.253,14.747-21.301l28.757-10.815
		c8.113-3.047,14.747,1.548,14.747,10.211V353.434z"/>
	<path fill="#FDD173" d="M435.047,325.696c0,8.667-6.414,18.771-14.257,22.461l-22.463,10.557
		c-7.841,3.688-14.258-0.387-14.258-9.054v-56.268c0-8.667,6.634-18.25,14.747-21.3l21.485-8.083
		c8.113-3.048,14.747,1.547,14.747,10.211V325.696z"/>
	<path fill="#FBB216" d="M92.266,153.479c0,8.667-6.843,13.904-15.208,11.641l-18.947-5.127
		c-8.365-2.267-15.207-11.211-15.207-19.875V86.636c0-8.667,6.991-14.569,15.53-13.109l18.3,3.117
		c8.543,1.454,15.531,9.737,15.531,18.403V153.479z"/>
	<path fill="#FBB216" d="M156.498,170.116c0,8.665-6.846,13.907-15.21,11.649l-26.042-7.028
		c-8.368-2.258-15.213-11.197-15.213-19.861V97.078c0-8.665,6.988-14.56,15.531-13.097l25.403,4.351
		c8.543,1.459,15.531,9.747,15.531,18.415V170.116z"/>
	<path fill="#FBB216" d="M230.639,190.128c0,8.664-6.846,13.909-15.211,11.649l-34.793-9.392
		c-8.365-2.257-15.211-11.195-15.211-19.86v-64.253c0-8.665,6.988-14.558,15.529-13.098l34.157,5.849
		c8.541,1.463,15.529,9.749,15.529,18.415V190.128z"/>
	<path fill="#FBB216" d="M92.266,250.938c0,8.667-6.628,13.242-14.73,10.17l-19.898-7.551c-8.104-3.076-14.732-12.681-14.732-21.344
		v-53.486c0-8.664,6.828-13.849,15.177-11.52l19.011,5.306c8.345,2.329,15.174,11.325,15.174,19.989V250.938z"/>
	<path fill="#FBB216" d="M156.498,274.554c0,8.667-6.631,13.246-14.736,10.179l-26.993-10.22
		c-8.105-3.067-14.736-12.669-14.736-21.337v-57.794c0-8.665,6.829-13.845,15.175-11.51l26.118,7.309
		c8.343,2.338,15.172,11.336,15.172,20.003V274.554z"/>
	<path fill="#FBB216" d="M230.639,302.626c0,8.667-6.631,13.244-14.733,10.176l-35.748-13.537
		c-8.102-3.067-14.733-12.667-14.733-21.333v-64.249c0-8.664,6.827-13.844,15.172-11.512l34.87,9.762
		c8.346,2.337,15.172,11.336,15.172,20.002V302.626z"/>
	<path fill="#FBB216" d="M92.266,351.384c0,8.667-6.362,12.631-14.141,8.81l-21.081-10.36c-7.778-3.819-14.14-14.036-14.14-22.703
		v-53.483c0-8.667,6.604-13.174,14.672-10.016l20.017,7.827c8.069,3.158,14.673,12.829,14.673,21.495V351.384z"/>
	<path fill="#FBB216" d="M156.498,382.197c0,8.664-6.365,12.631-14.146,8.814l-28.172-13.822
		c-7.781-3.813-14.146-14.028-14.146-22.695v-57.797c0-8.665,6.602-13.169,14.67-10.008l27.125,10.634
		c8.068,3.16,14.67,12.837,14.67,21.504V382.197z"/>
	<path fill="#FBB216" d="M230.639,418.57c0,8.667-6.365,12.632-14.146,8.815l-36.922-18.116
		c-7.781-3.816-14.146-14.03-14.146-22.695v-64.25c0-8.668,6.602-13.169,14.67-10.009l35.875,14.06
		c8.068,3.161,14.67,12.837,14.67,21.504V418.57z"/>
</g>
</svg>
