<?xml version="1.0" encoding="UTF-8" standalone="no"?>
<!-- Created with Inkscape (http://www.inkscape.org/) -->

<svg
   xmlns:dc="http://purl.org/dc/elements/1.1/"
   xmlns:cc="http://creativecommons.org/ns#"
   xmlns:rdf="http://www.w3.org/1999/02/22-rdf-syntax-ns#"
   xmlns:svg="http://www.w3.org/2000/svg"
   xmlns="http://www.w3.org/2000/svg"
   xmlns:sodipodi="http://sodipodi.sourceforge.net/DTD/sodipodi-0.dtd"
   xmlns:inkscape="http://www.inkscape.org/namespaces/inkscape"
   width="417"
   height="402"
   id="svg3157"
   version="1.1"
   inkscape:version="0.48.4 r9939"
   sodipodi:docname="cube-logo.svg">
  <defs
     id="defs3159" />
  <sodipodi:namedview
     id="base"
     pagecolor="#ffffff"
     bordercolor="#666666"
     borderopacity="1.0"
     inkscape:pageopacity="0.0"
     inkscape:pageshadow="2"
     inkscape:zoom="0.35"
     inkscape:cx="350.93029"
     inkscape:cy="173.45949"
     inkscape:document-units="px"
     inkscape:current-layer="layer1"
     showgrid="false"
     inkscape:window-width="728"
     inkscape:window-height="423"
     inkscape:window-x="78"
     inkscape:window-y="78"
     inkscape:window-maximized="0"
     fit-margin-top="1"
     fit-margin-right="1"
     fit-margin-bottom="1"
     fit-margin-left="1">
    <sodipodi:guide
       position="-165.78514,-328.51895"
       orientation="0,744.09448"
       id="guide3261" />
    <sodipodi:guide
       position="578.30934,-328.51895"
       orientation="-1052.3622,0"
       id="guide3263" />
    <sodipodi:guide
       position="578.30934,723.84325"
       orientation="0,-744.09448"
       id="guide3265" />
    <sodipodi:guide
       position="-165.78514,723.84325"
       orientation="1052.3622,0"
       id="guide3267" />
  </sodipodi:namedview>
  <metadata
     id="metadata3162">
    <rdf:RDF>
      <cc:Work
         rdf:about="">
        <dc:format>image/svg+xml</dc:format>
        <dc:type
           rdf:resource="http://purl.org/dc/dcmitype/StillImage" />
        <dc:title></dc:title>
      </cc:Work>
    </rdf:RDF>
  </metadata>
  <g
     inkscape:label="Layer 1"
     inkscape:groupmode="layer"
     id="layer1"
     transform="translate(-165.78514,-321.84324)">
    <path
       style="fill:#06799f"
       inkscape:connector-curvature="0"
       d="m 392.36685,346.0227 c -8.599,1.062 -22.667,1.032 -31.266,-0.066 l -20.799,-2.658 c -8.595,-1.098 -8.582,-2.783 0.03,-3.748 l 23.943,-2.675 c 8.612,-0.964 22.7,-0.941 31.309,0.046 l 20.837,2.398 c 8.61,0.993 8.615,2.672 0.015,3.731 l -24.069,2.972 z"
       id="path8" />
    <path
       style="fill:#06799f"
       inkscape:connector-curvature="0"
       d="m 459.69085,354.2457 c -8.582,1.202 -22.637,1.29 -31.233,0.192 l -27.501,-3.506 c -8.596,-1.098 -8.593,-2.877 0.006,-3.956 l 23.199,-2.906 c 8.598,-1.078 22.675,-1.149 31.284,-0.158 l 27.191,3.13 c 8.609,0.993 8.631,2.788 0.05,3.986 l -22.996,3.218 z"
       id="path10" />
    <path
       style="fill:#06799f"
       inkscape:connector-curvature="0"
       d="m 535.71085,363.6227 c -8.554,1.383 -22.587,1.619 -31.183,0.521 l -35.591,-4.543 c -8.596,-1.098 -8.61,-2.993 -0.031,-4.214 l 22.933,-3.265 c 8.58,-1.224 22.643,-1.413 31.25,-0.423 l 34.782,4.005 c 8.606,0.987 8.65,2.932 0.098,4.315 l -22.258,3.604 z"
       id="path12" />
    <path
       style="fill:#06799f"
       inkscape:connector-curvature="0"
       d="m 325.22985,354.3057 c -8.601,1.065 -22.656,0.916 -31.232,-0.33 l -20.394,-2.958 c -8.573,-1.24 -8.545,-3.044 0.066,-4.011 l 30.47,-3.407 c 8.612,-0.963 22.688,-0.845 31.286,0.263 l 20.78,2.678 c 8.596,1.108 8.591,2.883 -0.011,3.945 l -30.965,3.82 z"
       id="path14" />
    <path
       style="fill:#06799f"
       inkscape:connector-curvature="0"
       d="m 396.24685,363.8117 c -8.582,1.205 -22.621,1.181 -31.197,-0.058 l -28.76,-4.153 c -8.576,-1.24 -8.56,-3.139 0.041,-4.217 l 30.967,-3.891 c 8.598,-1.078 22.667,-1.062 31.26,0.044 l 28.783,3.696 c 8.595,1.105 8.606,2.996 0.024,4.203 l -31.118,4.376 z"
       id="path16" />
    <path
       style="fill:#06799f"
       inkscape:connector-curvature="0"
       d="m 468.97785,374.4127 c -8.555,1.386 -22.572,1.501 -31.148,0.259 l -36.13,-5.232 c -8.573,-1.24 -8.573,-3.257 0.006,-4.478 l 30.212,-4.304 c 8.579,-1.221 22.628,-1.315 31.221,-0.207 l 35.658,4.599 c 8.596,1.108 8.628,3.144 0.074,4.53 l -29.893,4.833 z"
       id="path18" />
    <path
       style="fill:#06799f"
       inkscape:connector-curvature="0"
       d="m 247.65285,364.1607 c -8.6,1.065 -22.628,0.758 -31.174,-0.683 l -20.394,-3.438 c -8.543,-1.438 -8.488,-3.405 0.124,-4.367 l 39.682,-4.439 c 8.612,-0.96 22.673,-0.718 31.249,0.538 l 21.319,3.127 c 8.575,1.262 8.553,3.161 -0.046,4.223 l -40.76,5.039 z"
       id="path20" />
    <path
       style="fill:#06799f"
       inkscape:connector-curvature="0"
       d="m 313.14985,374.7617 c -8.582,1.202 -22.593,1.007 -31.14,-0.43 l -26.873,-4.519 c -8.545,-1.437 -8.504,-3.495 0.096,-4.576 l 38.553,-4.829 c 8.598,-1.082 22.648,-0.928 31.218,0.334 l 27.444,4.042 c 8.573,1.262 8.565,3.278 -0.017,4.48 l -39.281,5.498 z"
       id="path22" />
    <path
       style="fill:#06799f"
       inkscape:connector-curvature="0"
       d="m 389.44785,387.2777 c -8.554,1.382 -22.544,1.339 -31.093,-0.099 l -36.097,-6.074 c -8.546,-1.438 -8.519,-3.616 0.061,-4.837 l 39.362,-5.604 c 8.578,-1.224 22.612,-1.191 31.186,0.071 l 36.159,5.325 c 8.574,1.262 8.588,3.427 0.034,4.809 l -39.612,6.409 z"
       id="path24" />
    <path
       style="fill:#60b3ce"
       inkscape:connector-curvature="0"
       d="m 446.76085,462.12169 c 0,8.664 -6.862,17.542 -15.246,19.729 l -36.7,9.567 c -8.384,2.184 -15.246,-3.117 -15.246,-11.781 V 408.3487 c 0,-8.665 6.997,-16.912 15.545,-18.322 l 36.103,-5.965 c 8.548,-1.41 15.545,4.521 15.545,13.188 v 64.87199 z"
       id="path26" />
    <path
       style="fill:#ff8300"
       inkscape:connector-curvature="0"
       d="m 514.21285,443.83369 c 0,8.664 -6.862,17.539 -15.249,19.717 l -27.752,7.212 c -8.387,2.184 -15.249,-3.125 -15.249,-11.789 V 396.4737 c 0,-8.664 6.993,-16.917 15.542,-18.332 l 27.167,-4.508 c 8.548,-1.418 15.542,4.514 15.542,13.177 v 57.02299 z"
       id="path28" />
    <path
       style="fill:#60b3ce"
       inkscape:connector-curvature="0"
       d="m 573.21385,428.4947 c 0,8.66699 -6.863,17.53899 -15.25,19.71699 l -20.48,5.328 c -8.386,2.179 -15.248,-3.127 -15.248,-11.791 V 385.4787 c 0,-8.664 6.993,-16.917 15.542,-18.333 l 19.895,-3.303 c 8.545,-1.418 15.542,4.511 15.542,13.174 v 51.478 z"
       id="path30" />
    <path
       style="fill:#60b3ce"
       inkscape:connector-curvature="0"
       d="m 446.76085,566.54869 c 0,8.667 -6.661,18.182 -14.804,21.147 l -37.584,13.688 c -8.143,2.963 -14.804,-1.701 -14.804,-10.365 v -71.286 c 0,-8.667 6.849,-17.596 15.215,-19.844 l 36.762,-9.876 c 8.367,-2.248 15.215,3.003 15.215,11.67 v 64.866 z"
       id="path32" />
    <path
       style="fill:#ff8300"
       inkscape:connector-curvature="0"
       d="m 514.21285,597.47169 c 0,8.667 -6.661,18.178 -14.807,21.136 l -28.636,10.409 c -8.143,2.957 -14.807,-1.712 -14.807,-10.376 v -118.686 c 0,-8.667 6.845,-17.602 15.212,-19.854 l 27.825,-7.496 c 8.368,-2.255 15.213,2.993 15.213,11.658 v 113.209 z"
       id="path34" />
    <path
       style="fill:#60b3ce"
       inkscape:connector-curvature="0"
       d="m 573.21385,519.84069 c 0,8.667 -6.661,18.178 -14.807,21.139 l -21.365,7.761 c -8.146,2.96 -14.807,-1.706 -14.807,-10.375 v -56.265 c 0,-8.664 6.846,-17.601 15.212,-19.853 l 20.554,-5.536 c 8.365,-2.255 15.212,2.991 15.212,11.655 v 51.474 z"
       id="path36" />
    <path
       style="fill:#60b3ce"
       inkscape:connector-curvature="0"
       d="m 446.76085,674.18269 c 0,8.665 -6.415,18.774 -14.256,22.467 l -38.681,18.211 c -7.841,3.693 -14.256,-0.378 -14.256,-9.045 v -71.283 c 0,-8.667 6.637,-18.247 14.752,-21.292 l 37.688,-14.146 c 8.112,-3.046 14.752,1.555 14.752,10.223 v 64.865 z"
       id="path38" />
    <path
       style="fill:#ff8300"
       inkscape:connector-curvature="0"
       d="m 514.21285,641.72469 c 0,8.667 -6.417,18.771 -14.258,22.458 l -29.734,13.972 c -7.841,3.688 -14.258,-0.387 -14.258,-9.054 v -62.494 c 0,-8.667 6.634,-18.253 14.747,-21.301 l 28.757,-10.815 c 8.113,-3.047 14.747,1.548 14.747,10.211 v 57.023 z"
       id="path40" />
    <path
       style="fill:#60b3ce"
       inkscape:connector-curvature="0"
       d="m 573.21385,613.98669 c 0,8.667 -6.414,18.771 -14.257,22.461 l -22.463,10.557 c -7.841,3.688 -14.258,-0.387 -14.258,-9.054 v -56.268 c 0,-8.667 6.634,-18.25 14.747,-21.3 l 21.485,-8.083 c 8.113,-3.048 14.747,1.547 14.747,10.211 v 51.476 z"
       id="path42" />
    <path
       style="fill:#06799f"
       inkscape:connector-curvature="0"
       d="m 230.43285,441.76969 c 0,8.667 -6.843,13.904 -15.208,11.641 l -18.947,-5.127 c -8.365,-2.267 -15.207,-11.211 -15.207,-19.87499 v -53.482 c 0,-8.667 6.991,-14.569 15.53,-13.109 l 18.3,3.117 c 8.543,1.454 15.531,9.737 15.531,18.403 v 58.43199 z"
       id="path44" />
    <path
       d="m 294.66485,458.40669 c 0,8.665 -6.846,13.907 -15.21,11.649 l -26.042,-7.028 c -8.368,-2.258 -15.21299,-11.197 -15.21299,-19.861 V 385.3687 c 0,-8.665 6.988,-14.56 15.531,-13.097 l 25.40299,4.351 c 8.543,1.459 15.531,9.747 15.531,18.415 v 63.36899 z"
       id="path46"
       inkscape:connector-curvature="0"
       style="fill:#06799f" />
    <path
       style="fill:#06799f"
       inkscape:connector-curvature="0"
       d="m 368.80585,478.41869 c 0,8.664 -6.846,13.909 -15.211,11.649 l -34.793,-9.392 c -8.365,-2.257 -15.211,-11.195 -15.211,-19.86 V 396.5617 c 0,-8.665 6.988,-14.558 15.529,-13.098 l 34.157,5.849 c 8.541,1.463 15.529,9.749 15.529,18.415 v 70.69099 z"
       id="path48" />
    <path
       style="fill:#06799f"
       inkscape:connector-curvature="0"
       d="m 230.43285,539.22869 c 0,8.667 -6.628,13.242 -14.73,10.17 l -19.898,-7.551 c -8.104,-3.076 -14.732,-12.681 -14.732,-21.344 v -53.486 c 0,-8.664 6.828,-13.849 15.177,-11.52 l 19.011,5.306 c 8.345,2.329 15.174,11.325 15.174,19.989 v 58.436 z"
       id="path50" />
    <path
       style="fill:#06799f"
       inkscape:connector-curvature="0"
       d="m 294.66485,562.84469 c 0,8.667 -6.631,13.246 -14.736,10.179 l -26.993,-10.22 c -8.105,-3.067 -14.736,-12.669 -14.736,-21.337 v -57.794 c 0,-8.665 6.829,-13.845 15.175,-11.51 l 26.118,7.309 c 8.343,2.338 15.172,11.336 15.172,20.003 v 63.37 z"
       id="path52" />
    <path
       style="fill:#06799f"
       inkscape:connector-curvature="0"
       d="m 368.80585,590.91669 c 0,8.667 -6.631,13.244 -14.733,10.176 l -35.748,-13.537 c -8.102,-3.067 -14.733,-12.667 -14.733,-21.333 v -64.249 c 0,-8.664 6.827,-13.844 15.172,-11.512 l 34.87,9.762 c 8.346,2.337 15.172,11.336 15.172,20.002 v 70.691 z"
       id="path54" />
    <path
       style="fill:#06799f"
       inkscape:connector-curvature="0"
       d="m 230.43285,639.67469 c 0,8.667 -6.362,12.631 -14.141,8.81 l -21.081,-10.36 c -7.778,-3.819 -14.14,-14.036 -14.14,-22.703 v -53.483 c 0,-8.667 6.604,-13.174 14.672,-10.016 l 20.017,7.827 c 8.069,3.158 14.673,12.829 14.673,21.495 v 58.43 z"
       id="path56" />
    <path
       style="fill:#06799f"
       inkscape:connector-curvature="0"
       d="m 294.66485,670.48769 c 0,8.664 -6.365,12.631 -14.146,8.814 l -28.173,-13.821 c -7.781,-3.813 -14.146,-14.028 -14.146,-22.695 v -57.797 c 0,-8.665 6.602,-13.169 14.67,-10.008 l 27.125,10.634 c 8.068,3.16 14.67,12.837 14.67,21.504 v 63.369 z"
       id="path58" />
    <path
       style="fill:#06799f"
       inkscape:connector-curvature="0"
       d="m 368.80585,706.86069 c 0,8.667 -6.365,12.632 -14.146,8.815 l -36.922,-18.116 c -7.781,-3.816 -14.146,-14.03 -14.146,-22.695 v -64.25 c 0,-8.668 6.602,-13.169 14.67,-10.009 l 35.875,14.06 c 8.068,3.161 14.67,12.837 14.67,21.504 v 70.691 z"
       id="path60" />
  </g>
</svg>
